{
  "accessors": [
    {
      "bufferView": 2,
      "componentType": 5126,
      "count": 65532,
      "max": [
        83.3208236694336,
        0.009978795424103737,
        -0.00021004317386541516
      ],
      "min": [
        12.8125,
        -85.6484603881836,
        -235.21536254882813
      ],
      "type": "VEC3"
    },
    {
      "bufferView": 2,
      "byteOffset": 786384,
      "componentType": 5126,
      "count": 65532,
      "max": [
        1.0,
        1.0,
        0.9470866322517395
      ],
      "min": [
        -1.0,
        -1.0,
        -0.999998152256012
      ],
      "type": "VEC3"
    },
    {
      "bufferView": 1,
      "componentType": 5126,
      "count": 65532,
      "max": [
        2.6100199222564697,
        9.260479927062988
      ],
      "min": [
        -2.675909996032715,
        -1.540060043334961
      ],
      "type": "VEC2"
    },
    {
      "bufferView": 0,
      "componentType": 5125,
      "count": 190992,
      "type": "SCALAR"
    },
    {
      "bufferView": 2,
      "byteOffset": 1572768,
      "componentType": 5126,
      "count": 65532,
      "max": [
        83.31869506835938,
        -0.0,
        1.2945987691637129e-05
      ],
      "min": [
        12.8125,
        -85.64633178710938,
        -235.21600341796875
      ],
      "type": "VEC3"
    },
    {
      "bufferView": 2,
      "byteOffset": 2359152,
      "componentType": 5126,
      "count": 65532,
      "max": [
        1.0,
        1.0,
        1.0
      ],
      "min": [
        -1.0,
        -1.0,
        -0.9999980926513672
      ],
      "type": "VEC3"
    },
    {
      "bufferView": 1,
      "byteOffset": 524256,
      "componentType": 5126,
      "count": 65532,
      "max": [
        2.6100199222564697,
        9.260479927062988
      ],
      "min": [
        -2.675909996032715,
        -1.540060043334961
      ],
      "type": "VEC2"
    },
    {
      "bufferView": 0,
      "byteOffset": 763968,
      "componentType": 5125,
      "count": 190755,
      "type": "SCALAR"
    },
    {
      "bufferView": 2,
      "byteOffset": 3145536,
      "componentType": 5126,
      "count": 65532,
      "max": [
        83.32181549072266,
        -0.0,
        1.335956130787963e-05
      ],
      "min": [
        -0.23127532005310059,
        -85.65485382080078,
        -235.21600341796875
      ],
      "type": "VEC3"
    },
    {
      "bufferView": 2,
      "byteOffset": 3931920,
      "componentType": 5126,
      "count": 65532,
      "max": [
        1.0,
        1.0,
        1.0
      ],
      "min": [
        -1.0,
        -1.0,
        -1.0
      ],
      "type": "VEC3"
    },
    {
      "bufferView": 1,
      "byteOffset": 1048512,
      "componentType": 5126,
      "count": 65532,
      "max": [
        2.6808300018310547,
        9.458640098571777
      ],
      "min": [
        -3.2098801136016846,
        -2.600980043411255
      ],
      "type": "VEC2"
    },
    {
      "bufferView": 0,
      "byteOffset": 1526988,
      "componentType": 5125,
      "count": 100545,
      "type": "SCALAR"
    },
    {
      "bufferView": 2,
      "byteOffset": 4718304,
      "componentType": 5126,
      "count": 65534,
      "max": [
        81.53099822998047,
        -0.0,
        -0.0
      ],
      "min": [
        -0.22752897441387177,
        -85.65675354003906,
        -235.21099853515625
      ],
      "type": "VEC3"
    },
    {
      "bufferView": 2,
      "byteOffset": 5504712,
      "componentType": 5126,
      "count": 65534,
      "max": [
        1.0,
        1.0,
        1.0
      ],
      "min": [
        -1.0,
        -1.0,
        -1.0
      ],
      "type": "VEC3"
    },
    {
      "bufferView": 1,
      "byteOffset": 1572768,
      "componentType": 5126,
      "count": 65534,
      "max": [
        2.6808300018310547,
        9.458640098571777
      ],
      "min": [
        -3.2098801136016846,
        -2.600980043411255
      ],
      "type": "VEC2"
    },
    {
      "bufferView": 0,
      "byteOffset": 1929168,
      "componentType": 5125,
      "count": 79209,
      "type": "SCALAR"
    },
    {
      "bufferView": 2,
      "byteOffset": 6291120,
      "componentType": 5126,
      "count": 65534,
      "max": [
        83.32897186279297,
        -1.3535800627052785e-13,
        1.3369721273193136e-05
      ],
      "min": [
        -0.22882859408855438,
        -85.64946746826172,
        -235.2159881591797
      ],
      "type": "VEC3"
    },
    {
      "bufferView": 2,
      "byteOffset": 7077528,
      "componentType": 5126,
      "count": 65534,
      "max": [
        1.0,
        1.0,
        1.0
      ],
      "min": [
        -1.0,
        -1.0,
        -1.0
      ],
      "type": "VEC3"
    },
    {
      "bufferView": 1,
      "byteOffset": 2097040,
      "componentType": 5126,
      "count": 65534,
      "max": [
        2.6808300018310547,
        9.175559997558594
      ],
      "min": [
        -3.2098801136016846,
        -1.3914599418640137
      ],
      "type": "VEC2"
    },
    {
      "bufferView": 0,
      "byteOffset": 2246004,
      "componentType": 5125,
      "count": 66045,
      "type": "SCALAR"
    },
    {
      "bufferView": 2,
      "byteOffset": 7863936,
      "componentType": 5126,
      "count": 65533,
      "max": [
        83.31838989257813,
        -0.0,
        1.333858017460443e-05
      ],
      "min": [
        -0.22174835205078125,
        -85.64946746826172,
        -235.21600341796875
      ],
      "type": "VEC3"
    },
    {
      "bufferView": 2,
      "byteOffset": 8650332,
      "componentType": 5126,
      "count": 65533,
      "max": [
        1.0,
        1.0,
        1.0
      ],
      "min": [
        -1.0,
        -1.0,
        -1.0
      ],
      "type": "VEC3"
    },
    {
      "bufferView": 1,
      "byteOffset": 2621312,
      "componentType": 5126,
      "count": 65533,
      "max": [
        2.6808300018310547,
        9.175559997558594
      ],
      "min": [
        -3.2098801136016846,
        -1.3914599418640137
      ],
      "type": "VEC2"
    },
    {
      "bufferView": 0,
      "byteOffset": 2510184,
      "componentType": 5125,
      "count": 74628,
      "type": "SCALAR"
    },
    {
      "bufferView": 2,
      "byteOffset": 9436728,
      "componentType": 5126,
      "count": 65532,
      "max": [
        83.3291015625,
        0.009978795424103737,
        1.3340471923584118e-05
      ],
      "min": [
        -0.005773634184151888,
        -83.6884536743164,
        -235.21534729003906
      ],
      "type": "VEC3"
    },
    {
      "bufferView": 2,
      "byteOffset": 10223112,
      "componentType": 5126,
      "count": 65532,
      "max": [
        1.0,
        1.0,
        1.0
      ],
      "min": [
        -1.0,
        -1.0,
        -0.9996383786201477
      ],
      "type": "VEC3"
    },
    {
      "bufferView": 1,
      "byteOffset": 3145576,
      "componentType": 5126,
      "count": 65532,
      "max": [
        2.6808300018310547,
        9.175559997558594
      ],
      "min": [
        -3.2098801136016846,
        -1.9527000188827515
      ],
      "type": "VEC2"
    },
    {
      "bufferView": 0,
      "byteOffset": 2808696,
      "componentType": 5125,
      "count": 66588,
      "type": "SCALAR"
    },
    {
      "bufferView": 2,
      "byteOffset": 11009496,
      "componentType": 5126,
      "count": 65533,
      "max": [
        83.32170104980469,
        -15.296074867248535,
        1.3367139217734803e-05
      ],
      "min": [
        -0.22174835205078125,
        -85.64946746826172,
        -235.2109832763672
      ],
      "type": "VEC3"
    },
    {
      "bufferView": 2,
      "byteOffset": 11795892,
      "componentType": 5126,
      "count": 65533,
      "max": [
        0.9999992251396179,
        0.9999992251396179,
        1.0
      ],
      "min": [
        -0.9999992251396179,
        -0.9999992251396179,
        -1.0
      ],
      "type": "VEC3"
    },
    {
      "bufferView": 1,
      "byteOffset": 3669832,
      "componentType": 5126,
      "count": 65533,
      "max": [
        2.554229974746704,
        9.458640098571777
      ],
      "min": [
        -3.2098801136016846,
        -2.600980043411255
      ],
      "type": "VEC2"
    },
    {
      "bufferView": 0,
      "byteOffset": 3075048,
      "componentType": 5125,
      "count": 98325,
      "type": "SCALAR"
    },
    {
      "bufferView": 2,
      "byteOffset": 12582288,
      "componentType": 5126,
      "count": 65532,
      "max": [
        81.54100036621094,
        0.009978795424103737,
        -2.819970040086276e-15
      ],
      "min": [
        -0.009999999776482582,
        -85.64934539794922,
        -235.2052764892578
      ],
      "type": "VEC3"
    },
    {
      "bufferView": 2,
      "byteOffset": 13368672,
      "componentType": 5126,
      "count": 65532,
      "max": [
        1.0,
        0.9999997615814209,
        1.0
      ],
      "min": [
        -1.0,
        -0.9999991655349731,
        -1.0
      ],
      "type": "VEC3"
    },
    {
      "bufferView": 1,
      "byteOffset": 4194096,
      "componentType": 5126,
      "count": 65532,
      "max": [
        2.554229974746704,
        9.458640098571777
      ],
      "min": [
        -3.2098801136016846,
        -2.600980043411255
      ],
      "type": "VEC2"
    },
    {
      "bufferView": 0,
      "byteOffset": 3468348,
      "componentType": 5125,
      "count": 98370,
      "type": "SCALAR"
    },
    {
      "bufferView": 2,
      "byteOffset": 14155056,
      "componentType": 5126,
      "count": 65534,
      "max": [
        83.3291015625,
        -0.005396876018494368,
        1.3369721273193136e-05
      ],
      "min": [
        -0.23127532005310059,
        -85.640625,
        -235.20526123046875
      ],
      "type": "VEC3"
    },
    {
      "bufferView": 2,
      "byteOffset": 14941464,
      "componentType": 5126,
      "count": 65534,
      "max": [
        1.0,
        1.0,
        1.0
      ],
      "min": [
        -1.0,
        -0.999999463558197,
        -1.0
      ],
      "type": "VEC3"
    },
    {
      "bufferView": 1,
      "byteOffset": 4718352,
      "componentType": 5126,
      "count": 65534,
      "max": [
        2.554229974746704,
        9.458640098571777
      ],
      "min": [
        -3.2098801136016846,
        -2.600980043411255
      ],
      "type": "VEC2"
    },
    {
      "bufferView": 0,
      "byteOffset": 3861828,
      "componentType": 5125,
      "count": 98352,
      "type": "SCALAR"
    },
    {
      "bufferView": 2,
      "byteOffset": 15727872,
      "componentType": 5126,
      "count": 61183,
      "max": [
        83.3272705078125,
        0.005460705142468214,
        1.3369721273193136e-05
      ],
      "min": [
        -0.23127532005310059,
        -85.65675354003906,
        -235.21600341796875
      ],
      "type": "VEC3"
    },
    {
      "bufferView": 2,
      "byteOffset": 16462068,
      "componentType": 5126,
      "count": 61183,
      "max": [
        1.0,
        1.0,
        1.0
      ],
      "min": [
        -1.0,
        -1.0,
        -1.0
      ],
      "type": "VEC3"
    },
    {
      "bufferView": 1,
      "byteOffset": 5242624,
      "componentType": 5126,
      "count": 61183,
      "max": [
        2.6808300018310547,
        9.458640098571777
      ],
      "min": [
        -3.2098801136016846,
        -2.600980043411255
      ],
      "type": "VEC2"
    },
    {
      "bufferView": 0,
      "byteOffset": 4255236,
      "componentType": 5125,
      "count": 91797,
      "type": "SCALAR"
    },
    {
      "bufferView": 2,
      "byteOffset": 17196264,
      "componentType": 5126,
      "count": 65532,
      "max": [
        1.8697903156280518,
        -2.108949899673462,
        1.3335775292944163e-05
      ],
      "min": [
        -2.1240763664245605,
        -83.65995025634766,
        -235.2052764892578
      ],
      "type": "VEC3"
    },
    {
      "bufferView": 2,
      "byteOffset": 17982648,
      "componentType": 5126,
      "count": 65532,
      "max": [
        1.0,
        1.0,
        1.0
      ],
      "min": [
        -1.0,
        -1.0,
        -1.0
      ],
      "type": "VEC3"
    },
    {
      "bufferView": 1,
      "byteOffset": 5732088,
      "componentType": 5126,
      "count": 65532,
      "max": [
        2.554229974746704,
        9.458640098571777
      ],
      "min": [
        -3.2098801136016846,
        -2.600980043411255
      ],
      "type": "VEC2"
    },
    {
      "bufferView": 0,
      "byteOffset": 4622424,
      "componentType": 5125,
      "count": 101739,
      "type": "SCALAR"
    },
    {
      "bufferView": 2,
      "byteOffset": 18769032,
      "componentType": 5126,
      "count": 65533,
      "max": [
        1.8697874546051025,
        -2.1118788719177246,
        1.3335775292944163e-05
      ],
      "min": [
        -2.1240763664245605,
        -83.65702056884766,
        -235.21600341796875
      ],
      "type": "VEC3"
    },
    {
      "bufferView": 2,
      "byteOffset": 19555428,
      "componentType": 5126,
      "count": 65533,
      "max": [
        1.0,
        1.0,
        1.0
      ],
      "min": [
        -1.0,
        -0.9999991059303284,
        -1.0
      ],
      "type": "VEC3"
    },
    {
      "bufferView": 1,
      "byteOffset": 6256344,
      "componentType": 5126,
      "count": 65533,
      "max": [
        2.6808300018310547,
        9.175559997558594
      ],
      "min": [
        -3.2098801136016846,
        -1.3914599418640137
      ],
      "type": "VEC2"
    },
    {
      "bufferView": 0,
      "byteOffset": 5029380,
      "componentType": 5125,
      "count": 66033,
      "type": "SCALAR"
    },
    {
      "bufferView": 2,
      "byteOffset": 20341824,
      "componentType": 5126,
      "count": 65532,
      "max": [
        1.8697947263717651,
        -2.113215208053589,
        1.3333462447917555e-05
      ],
      "min": [
        -2.1240735054016113,
        -83.64998626708984,
        -235.21099853515625
      ],
      "type": "VEC3"
    },
    {
      "bufferView": 2,
      "byteOffset": 21128208,
      "componentType": 5126,
      "count": 65532,
      "max": [
        1.0,
        1.0,
        1.0
      ],
      "min": [
        -1.0,
        -1.0,
        -1.0
      ],
      "type": "VEC3"
    },
    {
      "bufferView": 1,
      "byteOffset": 6780608,
      "componentType": 5126,
      "count": 65532,
      "max": [
        2.5983099937438965,
        9.431500434875488
      ],
      "min": [
        -3.2098801136016846,
        -2.520279884338379
      ],
      "type": "VEC2"
    },
    {
      "bufferView": 0,
      "byteOffset": 5293512,
      "componentType": 5125,
      "count": 91032,
      "type": "SCALAR"
    },
    {
      "bufferView": 2,
      "byteOffset": 21914592,
      "componentType": 5126,
      "count": 45063,
      "max": [
        80.22333526611328,
        -2.108949899673462,
        1.3335775292944163e-05
      ],
      "min": [
        -2.1240763664245605,
        -83.65995025634766,
        -235.21600341796875
      ],
      "type": "VEC3"
    },
    {
      "bufferView": 2,
      "byteOffset": 22455348,
      "componentType": 5126,
      "count": 45063,
      "max": [
        1.0,
        1.0,
        1.0
      ],
      "min": [
        -1.0,
        -1.0,
        -0.9999980926513672
      ],
      "type": "VEC3"
    },
    {
      "bufferView": 1,
      "byteOffset": 7304864,
      "componentType": 5126,
      "count": 45063,
      "max": [
        2.6808300018310547,
        9.260479927062988
      ],
      "min": [
        -3.2098801136016846,
        -1.7123600244522095
      ],
      "type": "VEC2"
    },
    {
      "bufferView": 0,
      "byteOffset": 5657640,
      "componentType": 5125,
      "count": 126972,
      "type": "SCALAR"
    },
    {
      "bufferView": 2,
      "byteOffset": 22996104,
      "componentType": 5126,
      "count": 24,
      "max": [
        1.0,
        0.07999999821186066,
        1.0
      ],
      "min": [
        -1.0,
        0.0,
        -1.0
      ],
      "type": "VEC3"
    },
    {
      "bufferView": 2,
      "byteOffset": 22996392,
      "componentType": 5126,
      "count": 24,
      "max": [
        1.0,
        1.0,
        1.0
      ],
      "min": [
        -1.0,
        -1.0,
        -1.0
      ],
      "type": "VEC3"
    },
    {
      "bufferView": 1,
      "byteOffset": 7665368,
      "componentType": 5126,
      "count": 24,
      "max": [
        1.0,
        1.0
      ],
      "min": [
        0.0,
        0.0
      ],
      "type": "VEC2"
    },
    {
      "bufferView": 0,
      "byteOffset": 6165528,
      "componentType": 5125,
      "count": 36,
      "type": "SCALAR"
    },
    {
      "bufferView": 2,
      "byteOffset": 22996680,
      "componentType": 5126,
      "count": 65532,
      "max": [
        1.0,
        0.04999999701976776,
        1.0
      ],
      "min": [
        -1.0,
        0.0,
        -1.0
      ],
      "type": "VEC3"
    },
    {
      "bufferView": 2,
      "byteOffset": 23783064,
      "componentType": 5126,
      "count": 65532,
      "max": [
        1.0,
        1.0,
        1.0
      ],
      "min": [
        -1.0,
        -1.0,
        -1.0
      ],
      "type": "VEC3"
    },
    {
      "bufferView": 1,
      "byteOffset": 7665560,
      "componentType": 5126,
      "count": 65532,
      "max": [
        1.000000238418579,
        1.000000238418579
      ],
      "min": [
        0.0,
        0.0
      ],
      "type": "VEC2"
    },
    {
      "bufferView": 0,
      "byteOffset": 6165672,
      "componentType": 5125,
      "count": 98286,
      "type": "SCALAR"
    },
    {
      "bufferView": 2,
      "byteOffset": 24569448,
      "componentType": 5126,
      "count": 32772,
      "max": [
        1.0,
        0.04999999701976776,
        1.0
      ],
      "min": [
        -1.0,
        0.0,
        -1.0
      ],
      "type": "VEC3"
    },
    {
      "bufferView": 2,
      "byteOffset": 24962712,
      "componentType": 5126,
      "count": 32772,
      "max": [
        0.9998433589935303,
        0.9998443722724915,
        0.999843418598175
      ],
      "min": [
        -0.9998432993888855,
        -0.9998441934585571,
        -0.999843418598175
      ],
      "type": "VEC3"
    },
    {
      "bufferView": 1,
      "byteOffset": 8189816,
      "componentType": 5126,
      "count": 32772,
      "max": [
        1.000000238418579,
        1.000000238418579
      ],
      "min": [
        0.0,
        0.0
      ],
      "type": "VEC2"
    },
    {
      "bufferView": 0,
      "byteOffset": 6558816,
      "componentType": 5125,
      "count": 49158,
      "type": "SCALAR"
    }
  ],
  "asset": {
    "extras": {
      "author": "medbunz (https://sketchfab.com/medbunz)",
      "license": "CC-BY-4.0 (http://creativecommons.org/licenses/by/4.0/)",
      "source": "https://sketchfab.com/3d-models/hassan-tower-rabat-morocco-8c912a10aac648139d6e5b0e56e937c7",
      "title": "Hassan tower Rabat - Morocco"
    },
    "generator": "Sketchfab-16.59.0",
    "version": "2.0"
  },
  "bufferViews": [
    {
      "buffer": 0,
      "byteLength": 6755448,
      "name": "floatBufferViews",
      "target": 34963
    },
    {
      "buffer": 0,
      "byteLength": 8451992,
      "byteOffset": 6755448,
      "byteStride": 8,
      "name": "floatBufferViews",
      "target": 34962
    },
    {
      "buffer": 0,
      "byteLength": 25355976,
      "byteOffset": 15207440,
      "byteStride": 12,
      "name": "floatBufferViews",
      "target": 34962
    }
  ],
  "buffers": [
    {
      "byteLength": 40563416,
      "uri": "scene.bin"
    }
  ],
  "extensionsUsed": [
    "KHR_materials_specular"
  ],
  "images": [
    {
      "uri": "textures/Material.001_metallicRoughness.png"
    }
  ],
  "materials": [
    {
      "doubleSided": true,
      "extensions": {
        "KHR_materials_specular": {
          "specularColorFactor": [
            1.0,
            1.0,
            1.0
          ],
          "specularFactor": 0.29120079767915186
        }
      },
      "name": "Material.001",
      "pbrMetallicRoughness": {
        "baseColorFactor": [
          0.8550613809075651,
          0.24922352305586423,
          0.06825278582909727,
          1.0
        ],
        "metallicFactor": 0.43695303102847743,
        "metallicRoughnessTexture": {
          "index": 0
        },
        "roughnessFactor": 0.3215658462935947
      }
    },
    {
      "doubleSided": true,
      "name": "Material",
      "pbrMetallicRoughness": {
        "baseColorFactor": [
          0.8549926081242338,
          0.25015828472995333,
          0.06847816984440022,
          1.0
        ],
        "metallicFactor": 0.7891875949560143,
        "metallicRoughnessTexture": {
          "index": 1
        },
        "roughnessFactor": 0.20617866155871195
      }
    }
  ],
  "meshes": [
    {
      "name": "Object_0",
      "primitives": [
        {
          "attributes": {
            "NORMAL": 1,
            "POSITION": 0,
            "TEXCOORD_0": 2
          },
          "indices": 3,
          "material": 0,
          "mode": 4
        }
      ]
    },
    {
      "name": "Object_1",
      "primitives": [
        {
          "attributes": {
            "NORMAL": 5,
            "POSITION": 4,
            "TEXCOORD_0": 6
          },
          "indices": 7,
          "material": 0,
          "mode": 4
        }
      ]
    },
    {
      "name": "Object_2",
      "primitives": [
        {
          "attributes": {
            "NORMAL": 9,
            "POSITION": 8,
            "TEXCOORD_0": 10
          },
          "indices": 11,
          "material": 0,
          "mode": 4
        }
      ]
    },
    {
      "name": "Object_3",
      "primitives": [
        {
          "attributes": {
            "NORMAL": 13,
            "POSITION": 12,
            "TEXCOORD_0": 14
          },
          "indices": 15,
          "material": 0,
          "mode": 4
        }
      ]
    },
    {
      "name": "Object_4",
      "primitives": [
        {
          "attributes": {
            "NORMAL": 17,
            "POSITION": 16,
            "TEXCOORD_0": 18
          },
          "indices": 19,
          "material": 0,
          "mode": 4
        }
      ]
    },
    {
      "name": "Object_5",
      "primitives": [
        {
          "attributes": {
            "NORMAL": 21,
            "POSITION": 20,
            "TEXCOORD_0": 22
          },
          "indices": 23,
          "material": 0,
          "mode": 4
        }
      ]
    },
    {
      "name": "Object_6",
      "primitives": [
        {
          "attributes": {
            "NORMAL": 25,
            "POSITION": 24,
            "TEXCOORD_0": 26
          },
          "indices": 27,
          "material": 0,
          "mode": 4
        }
      ]
    },
    {
      "name": "Object_7",
      "primitives": [
        {
          "attributes": {
            "NORMAL": 29,
            "POSITION": 28,
            "TEXCOORD_0": 30
          },
          "indices": 31,
          "material": 0,
          "mode": 4
        }
      ]
    },
    {
      "name": "Object_8",
      "primitives": [
        {
          "attributes": {
            "NORMAL": 33,
            "POSITION": 32,
            "TEXCOORD_0": 34
          },
          "indices": 35,
          "material": 0,
          "mode": 4
        }
      ]
    },
    {
      "name": "Object_9",
      "primitives": [
        {
          "attributes": {
            "NORMAL": 37,
            "POSITION": 36,
            "TEXCOORD_0": 38
          },
          "indices": 39,
          "material": 0,
          "mode": 4
        }
      ]
    },
    {
      "name": "Object_10",
      "primitives": [
        {
          "attributes": {
            "NORMAL": 41,
            "POSITION": 40,
            "TEXCOORD_0": 42
          },
          "indices": 43,
          "material": 0,
          "mode": 4
        }
      ]
    },
    {
      "name": "Object_11",
      "primitives": [
        {
          "attributes": {
            "NORMAL": 45,
            "POSITION": 44,
            "TEXCOORD_0": 46
          },
          "indices": 47,
          "material": 0,
          "mode": 4
        }
      ]
    },
    {
      "name": "Object_12",
      "primitives": [
        {
          "attributes": {
            "NORMAL": 49,
            "POSITION": 48,
            "TEXCOORD_0": 50
          },
          "indices": 51,
          "material": 0,
          "mode": 4
        }
      ]
    },
    {
      "name": "Object_13",
      "primitives": [
        {
          "attributes": {
            "NORMAL": 53,
            "POSITION": 52,
            "TEXCOORD_0": 54
          },
          "indices": 55,
          "material": 0,
          "mode": 4
        }
      ]
    },
    {
      "name": "Object_14",
      "primitives": [
        {
          "attributes": {
            "NORMAL": 57,
            "POSITION": 56,
            "TEXCOORD_0": 58
          },
          "indices": 59,
          "material": 0,
          "mode": 4
        }
      ]
    },
    {
      "name": "Object_15",
      "primitives": [
        {
          "attributes": {
            "NORMAL": 61,
            "POSITION": 60,
            "TEXCOORD_0": 62
          },
          "indices": 63,
          "material": 0,
          "mode": 4
        }
      ]
    },
    {
      "name": "Object_16",
      "primitives": [
        {
          "attributes": {
            "NORMAL": 65,
            "POSITION": 64,
            "TEXCOORD_0": 66
          },
          "indices": 67,
          "material": 1,
          "mode": 4
        }
      ]
    },
    {
      "name": "Object_17",
      "primitives": [
        {
          "attributes": {
            "NORMAL": 69,
            "POSITION": 68,
            "TEXCOORD_0": 70
          },
          "indices": 71,
          "material": 1,
          "mode": 4
        }
      ]
    }
  ],
  "nodes": [
    {
      "children": [
        1
      ],
      "matrix": [
        1.0,
        0.0,
        0.0,
        0.0,
        0.0,
        2.220446049250313e-16,
        -1.0,
        0.0,
        0.0,
        1.0,
        2.220446049250313e-16,
        0.0,
        0.0,
        0.0,
        0.0,
        1.0
      ],
      "name": "Sketchfab_model"
    },
    {
      "children": [
        2
      ],
      "name": "root"
    },
    {
      "children": [
        3,
        19,
        21
      ],
      "matrix": [
        1.0,
        0.0,
        0.0,
        0.0,
        0.0,
        2.220446049250313e-16,
        1.0,
        0.0,
        0.0,
        -1.0,
        2.220446049250313e-16,
        0.0,
        0.0,
        0.0,
        0.0,
        1.0
      ],
      "name": "GLTF_SceneRootNode"
    },
    {
      "children": [
        4,
        5,
        6,
        7,
        8,
        9,
        10,
        11,
        12,
        13,
        14,
        15,
        16,
        17,
        18
      ],
      "matrix": [
        -0.0013031658890572118,
        2.9666385681359486e-08,
        0.9999991508789718,
        0.0,
        -0.9999991508789505,
        -2.0863563343631597e-07,
        -0.0013031658890509945,
        0.0,
        2.0859679616958005e-07,
        -0.9999999999999778,
        2.993824732566708e-08,
        0.0,
        -4.275427341461182,
        0.0,
        -81.41838836669922,
        1.0
      ],
      "name": "rabat ms.002_2"
    },
    {
      "mesh": 0,
      "name": "Object_4"
    },
    {
      "mesh": 1,
      "name": "Object_5"
    },
    {
      "mesh": 2,
      "name": "Object_6"
    },
    {
      "mesh": 3,
      "name": "Object_7"
    },
    {
      "mesh": 4,
      "name": "Object_8"
    },
    {
      "mesh": 5,
      "name": "Object_9"
    },
    {
      "mesh": 6,
      "name": "Object_10"
    },
    {
      "mesh": 7,
      "name": "Object_11"
    },
    {
      "mesh": 8,
      "name": "Object_12"
    },
    {
      "mesh": 9,
      "name": "Object_13"
    },
    {
      "mesh": 10,
      "name": "Object_14"
    },
    {
      "mesh": 11,
      "name": "Object_15"
    },
    {
      "mesh": 12,
      "name": "Object_16"
    },
    {
      "mesh": 13,
      "name": "Object_17"
    },
    {
      "mesh": 14,
      "name": "Object_18"
    },
    {
      "children": [
        20
      ],
      "matrix": [
        44.56072235107422,
        0.0,
        0.0,
        0.0,
        0.0,
        44.56072235107422,
        0.0,
        0.0,
        0.0,
        0.0,
        44.56072235107422,
        0.0,
        38.68540954589844,
        232.33570861816406,
        -41.04103088378906,
        1.0
      ],
      "name": "Plane_3"
    },
    {
      "mesh": 15,
      "name": "Object_20"
    },
    {
      "children": [
        22,
        23
      ],
      "matrix": [
        -103.08325958251953,
        -0.0,
        0.0,
        -0.0,
        -0.0,
        -103.08325958251953,
        0.0,
        -0.0,
        -0.0,
        -0.0,
        -103.08325958251953,
        -0.0,
        38.73492431640625,
        0.0,
        -40.00312423706055,
        1.0
      ],
      "name": "Plane.001_4"
    },
    {
      "mesh": 16,
      "name": "Object_22"
    },
    {
      "mesh": 17,
      "name": "Object_23"
    }
  ],
  "samplers": [
    {
      "magFilter": 9728,
      "minFilter": 9728,
      "wrapS": 10497,
      "wrapT": 10497
    },
    {
      "magFilter": 9729,
      "minFilter": 9987,
      "wrapS": 33648,
      "wrapT": 10497
    }
  ],
  "scene": 0,
  "scenes": [
    {
      "name": "Sketchfab_Scene",
      "nodes": [
        0
      ]
    }
  ],
  "textures": [
    {
      "sampler": 0,
      "source": 0
    },
    {
      "sampler": 1,
      "source": 0
    }
  ]
}
